Coordinates
version=1
nRows=12
nColumns=33
inDegrees=yes

Units are S.I. units (second, meters, Newtons, ...)
Angles are in degrees.

endheader
time	ground_thorax_rot_x	ground_thorax_rot_y	ground_thorax_rot_z	ground_thorax_tx	ground_thorax_ty	ground_thorax_tz	clav_prot_r	clav_elev_r	scapula_abduction_r	scapula_elevation_r	scapula_upward_rot_r	scapula_winging_r	shoulder_elv_r	plane_of_elev_r	axial_rot_r	elbow_flexion_r	pro_sup_r	wrist_flex_r	wrist_dev_r	clav_prot_l	clav_elev_l	scapula_abduction_l	scapula_elevation_l	scapula_upward_rot_l	scapula_winging_l	shoulder_elv_l	plane_of_elev_l	axial_rot_l	elbow_flexion_l	pro_sup_l	wrist_flex_l	wrist_dev_l
     12.89000000	    -90.00000000	     90.00000000	    -90.00000000	    -16.64272821	    821.61943332	    -39.94064838	     28.74020701	     35.93780809	     45.00000000	     45.00000000	     12.36111181	   2493.79024119	    468.76687717	     29.55708097	    -50.34313558	   1438.11757441	    165.57019189	     11.94579324	     14.77509229	    -45.00000000	     23.24018999	     39.96181452	    -17.02496549	     45.00000000	   3345.24936033	  -5282.94453870	     22.91304245	    179.99999979	   1796.69291818	     45.63986609	     17.08766465	    -22.94964979
     12.90000000	    -90.00000000	     90.00000000	    -90.00000000	    -14.26984136	    820.22535471	    -39.71678614	     28.66317409	     35.99262251	     45.00000000	     45.00000000	     12.23112972	   2493.51016740	    468.72085917	     29.56209500	    -50.59823477	   1438.19557373	    166.22930017	     11.90808662	     14.72854501	    -45.00000000	     23.59497676	     40.08529402	    -17.24710845	     45.00000000	   3345.38340723	  -5282.92072480	     22.85746864	    179.99999979	   1796.77071335	     45.69175323	     17.14308638	    -22.83844749
     12.91000000	    -90.00000000	     90.00000000	    -90.00000000	    -11.90510490	    818.79898157	    -39.49867642	     28.58624907	     36.04781159	     45.00000000	     45.00000000	     12.11675618	   2493.22531967	    468.66609087	     29.57624657	    -50.85276870	   1438.24456389	    166.87462883	     11.88373448	     14.67964490	    -45.00000000	     23.93852648	     40.20365226	    -17.46902226	     45.00000000	   3345.51252146	  -5282.89423287	     22.80645939	    179.99999979	   1796.85737146	     45.73415223	     17.18815699	    -22.72138660
     12.92000000	    -90.00000000	     90.00000000	    -90.00000000	     -9.54990645	    817.33841245	    -39.28679241	     28.50558158	     36.10443996	     45.00000000	     45.00000000	     12.00183984	   2492.93496983	    468.61505873	     29.59239416	    -51.08813110	   1438.30831912	    167.50693889	     11.85596054	     14.63233502	    -45.00000000	     24.29587621	     40.32465128	    -17.70007788	     45.00000000	   3345.64801040	  -5282.87650260	     22.75464968	    179.99999979	   1796.92804831	     45.77560403	     17.23662570	    -22.60102962
     12.93000000	    -90.00000000	     90.00000000	    -90.00000000	     -7.20601023	    815.84279646	    -39.08082890	     28.41999183	     36.16162459	     45.00000000	     45.00000000	     11.87847695	   2492.63967282	    468.57244390	     29.60899086	    -51.29991346	   1438.39785093	    168.12082892	     11.81783405	     14.58962542	    -45.00000000	     24.65516184	     40.44419172	    -17.93849873	     45.00000000	   3345.79934659	  -5282.85935493	     22.71143873	    179.99999979	   1796.98655551	     45.81412233	     17.28525153	    -22.48005934
     12.94000000	    -90.00000000	     90.00000000	    -90.00000000	     -4.87777882	    814.31302395	    -38.88072252	     28.33528691	     36.22046194	     45.00000000	     45.00000000	     11.77974045	   2492.34296598	    468.51449030	     29.63589655	    -51.51312571	   1438.44437846	    168.72310622	     11.80050672	     14.54194017	    -45.00000000	     24.99383050	     40.55781058	    -18.17996767	     45.00000000	   3345.91906118	  -5282.82888140	     22.63819034	    179.99999979	   1797.07042688	     45.84206539	     17.31655266	    -22.36317864
     12.95000000	    -90.00000000	     90.00000000	    -90.00000000	     -2.56795064	    812.75075646	    -38.68553933	     28.25110234	     36.28060114	     45.00000000	     45.00000000	     11.69659509	   2492.01894159	    468.45508321	     29.68276100	    -51.71028052	   1438.50222888	    169.32879291	     11.78445039	     14.48142989	    -45.00000000	     25.32308767	     40.68375944	    -18.39011999	     45.00000000	   3346.05424938	  -5282.80675325	     22.63052627	    179.99999979	   1797.10643595	     45.87291580	     17.32772736	    -22.21845988
     12.96000000	    -90.00000000	     90.00000000	    -90.00000000	     -0.28461396	    811.16198332	    -38.49529426	     28.16235956	     36.33949713	     45.00000000	     45.00000000	     11.61364436	   2491.70531757	    468.40074425	     29.72372871	    -51.88773582	   1438.56911263	    169.92637846	     11.76430108	     14.42537634	    -45.00000000	     25.66811691	     40.80250532	    -18.63279565	     45.00000000	   3346.18402567	  -5282.78831987	     22.58022097	    179.99999979	   1797.15348416	     45.89359017	     17.34598598	    -22.09106115
     12.97000000	    -90.00000000	     90.00000000	    -90.00000000	      1.96817750	    809.55209754	    -38.30971026	     28.06987293	     36.39780561	     45.00000000	     45.00000000	     11.53370610	   2491.39453200	    468.35032687	     29.76435805	    -52.04084160	   1438.64157389	    170.51315173	     11.73929307	     14.37047101	    -45.00000000	     26.02664165	     40.91883575	    -18.88168548	     45.00000000	   3346.32457190	  -5282.77666001	     22.53792383	    179.99999979	   1797.18244067	     45.91013981	     17.36342682	    -21.96555337
     12.98000000	    -90.00000000	     90.00000000	    -90.00000000	      4.18702933	    807.92693584	    -38.12884492	     27.96437595	     36.45200954	     45.00000000	     45.00000000	     11.43312148	   2491.10644872	    468.32156061	     29.78193146	    -52.14984024	   1438.74253680	    171.06279948	     11.69143818	     14.33680128	    -45.00000000	     26.43445046	     41.03704468	    -19.14729325	     45.00000000	   3346.50249873	  -5282.79898344	     22.51854934	    179.99999979	   1797.16555594	     45.92845551	     17.41182411	    -21.85818005
     12.99000000	    -90.00000000	     90.00000000	    -90.00000000	      6.36800853	    806.29326399	    -37.95319026	     27.86696580	     36.51347023	     45.00000000	     45.00000000	     11.36285337	   2490.79898285	    468.27826933	     29.82783374	    -52.25140387	   1438.81484028	    171.60810445	     11.65718389	     14.28326025	    -45.00000000	     26.78336041	     41.14609140	    -19.39337941	     45.00000000	   3346.64747188	  -5282.78477555	     22.49406481	    179.99999979	   1797.18312713	     45.93870703	     17.41673179	    -21.74197970
     13.00000000	    -90.00000000	     90.00000000	    -90.00000000	      8.51150802	    804.65523382	    -37.78205828	     27.76710233	     36.57631733	     45.00000000	     45.00000000	     11.29968719	   2490.48758189	    468.23426937	     29.87950627	    -52.32853650	   1438.89176162	    172.14781284	     11.62317931	     14.22286433	    -45.00000000	     27.14162769	     41.25575385	    -19.64127861	     45.00000000	   3346.78882949	  -5282.77703856	     22.46594284	    179.99999979	   1797.18419827	     45.95734204	     17.41599778	    -21.62489286
